<?xml version="1.0" encoding="utf-8" ?>	<!-- Generator: Assembly 2.4 - http://assemblyapp.co -->	<svg version="1.1" xmlns="http://www.w3.org/2000/svg" xmlns:xlink="http://www.w3.org/1999/xlink" width="4096.00" height="4096.00" viewBox="0 0 4096.0 4096.0">		<g id="document" transform="scale(13.653333333333334 13.653333333333334) translate(150.0 150.0)">			<path d="M-150,187.677 L187.677,187.677 L187.677,-150 L-150,-150 L-150,187.677 Z " fill="#065a82" fill-opacity="1.00" />			<defs>				<filter id="P3U6Jl6b" x="-4.08%" y="-4.08%" width="112.23%" height="112.23%" filterUnits="objectBoundingBox">					<feOffset dx="0.00" dy="0.00" in="SourceAlpha" result="shadowOffsetOuter1" />					<feGaussianBlur stdDeviation="6.44" in="shadowOffsetOuter1" result="shadowBlurOuter1" />					<feFlood flood-color="#000000" flood-opacity="0.50" />					<feComposite in2="shadowBlurOuter1" operator="in" />					<feMerge>						<feMergeNode />						<feMergeNode in="SourceGraphic" />					</feMerge>				</filter>			</defs>			<path d="M-165.882,-165.882 L-165.882,150 C8.36471,150 150,8.36474 150,-165.882 L-165.882,-165.882 Z " fill="#70d6ff" fill-opacity="1.00" filter="url(#P3U6Jl6b)" />			<defs>				<filter id="XODJdPQf" x="-4.08%" y="-4.08%" width="112.23%" height="112.23%" filterUnits="objectBoundingBox">					<feOffset dx="0.00" dy="0.00" in="SourceAlpha" result="shadowOffsetOuter1" />					<feGaussianBlur stdDeviation="6.44" in="shadowOffsetOuter1" result="shadowBlurOuter1" />					<feFlood flood-color="#000000" flood-opacity="0.50" />					<feComposite in2="shadowBlurOuter1" operator="in" />					<feMerge>						<feMergeNode />						<feMergeNode in="SourceGraphic" />					</feMerge>				</filter>			</defs>			<path d="M-266.482,-268.982 L-266.482,46.9 C-92.2353,46.9 49.4,-94.7353 49.4,-268.982 L-266.482,-268.982 Z " fill="#f4ac45" fill-opacity="1.00" filter="url(#XODJdPQf)" />			<defs>				<filter id="PaJhE17d" x="-5.81%" y="-8.44%" width="117.43%" height="125.31%" filterUnits="objectBoundingBox">					<feOffset dx="0.00" dy="0.00" in="SourceAlpha" result="shadowOffsetOuter1" />					<feGaussianBlur stdDeviation="6.03" in="shadowOffsetOuter1" result="shadowBlurOuter1" />					<feFlood flood-color="#000000" flood-opacity="0.45" />					<feComposite in2="shadowBlurOuter1" operator="in" />					<feMerge>						<feMergeNode />						<feMergeNode in="SourceGraphic" />					</feMerge>				</filter>			</defs>			<path d="M62.6054,-19.5024 C60.7212,-15.5454 58.46,-11.0702 55.822,-6.07683 C53.184,-1.08347 50.6873,4.28675 48.332,10.0338 C45.9766,15.7809 43.951,21.8106 42.2551,28.123 C40.5593,34.4354 39.7114,40.7948 39.7114,47.2014 C39.7114,51.1584 40.0882,54.8328 40.8419,58.2245 C41.5956,61.6162 42.9146,64.6311 44.7989,67.2691 C46.6832,69.9071 49.0857,71.9798 52.0063,73.4872 C54.927,74.9946 58.6484,75.7484 63.1707,75.7484 C68.0699,75.7484 72.498,74.7591 76.455,72.7806 C80.412,70.8021 84.2748,68.3054 88.0433,65.2906 C88.0433,64.3484 87.9491,63.3121 87.7607,62.1815 C87.5723,61.0509 86.9128,60.1088 85.7822,59.3551 C84.84,59.3551 83.3797,59.779 81.4012,60.6269 C79.4227,61.4749 77.3029,61.8988 75.0417,61.8988 C72.969,61.8988 71.3674,61.2864 70.2368,60.0617 C69.1062,58.8369 68.541,56.246 68.541,52.289 C68.541,45.5055 70.0955,37.8742 73.2046,29.3949 C76.3136,20.9156 79.8467,12.295 83.8037,3.53304 C87.7607,-5.2289 91.6706,-13.5669 95.5334,-21.4809 C99.3962,-29.3949 102.175,-36.1783 103.871,-41.8312 C102.552,-45.5998 100.244,-48.4733 96.9466,-50.4518 C93.6491,-52.4303 90.116,-53.4195 86.3475,-53.4195 C80.883,-53.4195 75.0889,-51.441 68.9649,-47.484 C62.841,-43.527 56.1989,-37.8742 49.0386,-30.5255 C41.8783,-23.1767 34.2469,-14.3677 26.1445,-4.09833 C18.0421,6.17104 9.37433,17.6181 0.141322,30.2428 C0.706608,26.2858 2.68511,20.9627 6.07683,14.2735 C9.46854,7.58426 13.1429,0.659501 17.0999,-6.50079 C21.0569,-13.6611 24.7784,-20.4916 28.2643,-26.9924 C31.7502,-33.4932 33.9643,-38.6279 34.9064,-42.3965 C34.718,-42.9618 33.8701,-43.7626 32.3626,-44.7989 C30.8552,-45.8353 28.9709,-46.9188 26.7098,-48.0493 C24.4486,-49.1799 21.9991,-50.122 19.3611,-50.8758 C16.7231,-51.6295 14.2735,-52.0063 12.0123,-52.0063 C5.98261,-52.0063 -0.800822,-48.9915 -8.33797,-42.9618 C-15.8751,-36.932 -23.4594,-29.5833 -31.0907,-20.9156 C-38.7221,-12.2479 -46.165,-3.01486 -53.4195,6.78343 C-60.6741,16.5817 -66.9393,25.2495 -72.2153,32.7866 C-71.0847,25.061 -68.7294,17.4297 -65.1492,9.89251 C-61.5691,2.35536 -57.6121,-4.99336 -53.2782,-12.1537 C-48.9444,-19.3139 -44.7989,-26.1445 -40.8419,-32.6453 C-36.8849,-39.1461 -33.9643,-45.3171 -32.08,-51.1584 C-36.7907,-55.8691 -41.2659,-59.4493 -45.5055,-61.8988 C-49.7452,-64.3484 -54.503,-66.1385 -59.779,-67.2691 C-66.1856,-55.9633 -72.8277,-43.527 -79.7054,-29.9602 C-86.583,-16.3933 -92.1888,-2.73222 -96.5226,11.0231 C-98.7838,18.1834 -100.527,25.1552 -101.752,31.9387 C-102.976,38.7221 -103.683,44.375 -103.871,48.8973 C-102.929,53.9848 -101.516,58.6013 -99.6317,62.7468 C-97.7474,66.8922 -94.3557,70.755 -89.4565,74.3351 C-87.3838,73.0161 -84.0392,68.6823 -79.4227,61.3336 C-74.8062,53.9848 -69.012,45.4113 -62.0402,35.613 C-56.7642,28.2643 -51.1113,20.7743 -45.0816,13.1429 C-39.0519,5.51154 -33.2106,-1.36611 -27.5577,-7.49004 C-21.9048,-13.614 -16.6288,-18.6073 -11.7297,-22.4701 C-6.83054,-26.3329 -2.96775,-28.3585 -0.141322,-28.547 C-5.98261,-20.2561 -10.9289,-12.3892 -14.9801,-4.94625 C-19.0313,2.49668 -22.423,9.60987 -25.1552,16.3933 C-27.8875,23.1767 -30.1015,29.7246 -31.7973,36.037 C-33.4932,42.3494 -34.8122,48.4262 -35.7544,54.2675 C-34.4354,59.1666 -32.2684,63.2649 -29.2536,66.5625 C-26.2387,69.86 -22.6586,72.3566 -18.5131,74.0525 C-15.4983,70.4723 -11.8239,65.6674 -7.49004,59.6377 C-3.15618,53.608 1.50743,47.1543 6.50079,40.2766 C11.4942,33.399 16.6759,26.4742 22.0462,19.5024 C27.4164,12.5305 32.5982,6.17104 37.5915,0.423965 C42.5849,-5.32311 47.2485,-10.0338 51.5824,-13.7082 C55.9162,-17.3826 59.5906,-19.3139 62.6054,-19.5024 Z " fill="#ffffff" fill-opacity="1.00" filter="url(#PaJhE17d)" />		</g>	</svg>