<?xml version="1.0" encoding="utf-8" ?>	<!-- Generator: Assembly 2.4 - http://assemblyapp.co -->	<svg version="1.1" xmlns="http://www.w3.org/2000/svg" xmlns:xlink="http://www.w3.org/1999/xlink" width="4096.00" height="4096.00" viewBox="0 0 4096.0 4096.0">		<g id="document" transform="scale(13.653333333333334 13.653333333333334) translate(150.0 150.0)">			<path d="M4.71278e-06,-128.816 L-75.4527,-53.3629 C-117.15,-11.6654 -117.15,55.8449 -75.4527,97.5424 C-33.7551,139.24 33.7551,139.24 75.4527,97.5424 C117.15,55.8449 117.15,-11.6654 75.4527,-53.3629 L4.71278e-06,-128.816 Z " fill="#345995" fill-opacity="1.00" />			<path d="M29.5673,60.0829 C13.3653,76.2849 -13.268,76.2849 -29.47,60.0829 C-45.672,43.881 -45.672,17.2476 -29.47,1.04564 L-49.2231,-18.7074 C-76.4113,8.70273 -76.1894,52.6478 -49.1121,79.725 C-22.0349,106.802 22.1321,106.802 49.2094,79.725 C76.2866,52.6478 76.2866,8.48079 49.2094,-18.5965 L29.5673,1.04564 C45.7693,17.2476 45.7693,43.881 29.5673,60.0829 Z " fill="#ffffff" fill-opacity="1.00" />			<path d="M36.2139,51.3454 C24.7574,71.1887 -0.968447,78.0819 -20.8117,66.6254 C-40.655,55.1689 -47.5482,29.443 -36.0917,9.59975 L-60.2842,-4.36779 C-79.4517,29.1452 -67.8635,71.5354 -34.7008,90.682 C-1.53805,109.828 41.124,98.3972 60.2705,65.2345 C79.417,32.0717 67.9857,-10.5903 34.823,-29.7368 L20.9339,-5.68023 C40.7772,5.77629 47.6704,31.5021 36.2139,51.3454 Z " fill="#ffffff" fill-opacity="1.00" />			<path d="M26.0781,-3.64587 C33.6407,-2.28101 40.8676,-7.2982 42.2325,-14.8608 C43.5973,-22.4233 38.5801,-29.6503 31.0176,-31.0151 C23.455,-32.38 16.2281,-27.3628 14.8632,-19.8002 C13.4984,-12.2377 18.5155,-5.01073 26.0781,-3.64587 Z " fill="#ffffff" fill-opacity="1.00" />			<path d="M-49.9814,-17.9314 L-30.1502,1.73034 C24.1423,-52.5622 23.9546,-140.718 -30.3379,-195.01 C-6.53574,-131.866 -6.50807,-61.4047 -49.9814,-17.9314 Z " fill="#ffffff" fill-opacity="1.00" />		</g>	</svg>