<?xml version="1.0" encoding="utf-8" ?>
<svg version="1.1" xmlns="http://www.w3.org/2000/svg" xmlns:xlink="http://www.w3.org/1999/xlink" width="4096.00" height="2341.00" viewBox="0 0 4096.0 2341.0">
    <g id="document" transform="scale(13.653333333333334 13.653333333333334) translate(150.0 85.71428571428571)">
        <path d="M-149.739,-69.6319 L-149.739,-12.757 L-149.739,-12.757 C-149.739,-7.95712 -145.848,-4.06607 -141.048,-4.06607 C-136.248,-4.06607 -132.357,-7.95712 -132.357,-12.757 L-132.357,-19.6079 C-132.357,-25.4503 -127.621,-30.1866 -121.778,-30.1866 C-115.936,-30.1866 -111.199,-25.4503 -111.199,-19.6079 L-111.199,-1.25812 C-111.199,4.58435 -106.463,9.3206 -100.621,9.3206 C-94.7782,9.3206 -90.0419,4.58435 -90.0419,-1.25812 L-90.0419,-29.9339 C-90.0419,-32.3339 -88.0964,-34.2794 -85.6965,-34.2794 C-83.2965,-34.2794 -81.351,-32.3339 -81.351,-29.9339 L-81.351,-25.3148 C-81.351,-22.9149 -79.4054,-20.9693 -77.0055,-20.9693 C-74.6056,-20.9693 -72.66,-22.9149 -72.66,-25.3148 L-72.66,-46.5858 L-72.66,-46.5858 C-71.8076,-45.6901 -70.6038,-45.1318 -69.2697,-45.1318 C-66.6852,-45.1318 -64.5901,-47.227 -64.5901,-49.8114 L-64.5901,-54.6845 C-64.5901,-57.269 -62.4949,-59.3641 -59.9104,-59.3641 C-57.3259,-59.3641 -55.2308,-57.269 -55.2308,-54.6845 L-55.2308,-25.153 C-55.2308,-22.5685 -53.1357,-20.4734 -50.5512,-20.4734 C-47.9667,-20.4734 -45.8716,-22.5685 -45.8716,-25.153 L-45.8716,-35.1298 C-45.8716,-41.3778 -40.8066,-46.4428 -34.5586,-46.4428 C-28.3105,-46.4428 -23.2455,-41.3778 -23.2455,-35.1298 L-23.2455,-30.8772 C-23.2455,-23.272 -17.0804,-17.1068 -9.47523,-17.1068 C-1.87008,-17.1068 4.29512,-23.272 4.29512,-30.8772 L4.29512,-54.763 C4.29512,-62.3682 10.4603,-68.5334 18.0654,-68.5334 C25.6706,-68.5334 31.8358,-62.3682 31.8358,-54.763 L31.8358,-55.1133 L31.8409,-52.8437 C31.8409,-50.2592 33.936,-48.1641 36.5205,-48.1641 C37.8547,-48.1641 39.0584,-48.7224 39.9109,-49.6181 L39.9109,-49.6181 L39.9109,-35.8823 C39.9109,-30.0529 44.6366,-25.3273 50.4659,-25.3273 C56.2952,-25.3273 61.0208,-30.0529 61.0208,-35.8823 L61.0208,-42.1233 C61.0208,-47.9526 65.7465,-52.6782 71.5758,-52.6782 C77.4052,-52.6782 82.1308,-47.9526 82.1308,-42.1233 L82.1308,-1.23435 C82.1308,4.59503 86.8564,9.32063 92.6858,9.32063 C98.5151,9.32063 103.241,4.59503 103.241,-1.23435 L103.241,-28.248 C103.241,-34.0773 107.966,-38.8029 113.796,-38.8029 C119.625,-38.8029 124.351,-34.0773 124.351,-28.248 L124.351,-20.3969 C124.351,-14.5676 129.076,-9.84189 134.906,-9.84189 C140.735,-9.84189 145.461,-14.5676 145.461,-20.3969 L145.461,-69.6319 L145.461,-132.962 L-150,-132.962 L-150,-69.6319 L-149.739,-69.6319 L-149.739,-69.6319 Z " fill="#065A82" fill-opacity="1.00" />
    </g>
</svg>